<svg width="638" height="1012" viewBox="0 0 638 1012" fill="none" xmlns="http://www.w3.org/2000/svg">
<g clip-path="url(#clip0_9756_1066)">
<rect width="638" height="1012" fill="white"/>
<g clip-path="url(#clip1_9756_1066)">
<path d="M-8.08313 995H1.36688C11.4469 975.48 22.9969 956.751 34.8269 937.771C39.2169 930.721 44.8969 925.381 51.5269 920.701L72.6769 904.05C78.2069 916.56 87.6269 926.31 99.0869 934.01C97.3469 954.5 116.337 965.78 132.647 973.56L154.017 988.07C156.957 990.06 159.627 992.29 161.237 995H172.587C169.027 988.05 162.467 982.74 155.657 978.22L138.987 967.141C155.077 952.751 171.037 939.71 188.337 927.55C196.097 922.1 202.247 916.34 209.207 908.88C210.787 938.7 217.327 966.16 219.767 994.99H228.077C227.407 981.21 225.257 967.59 222.937 953.49C220.767 940.32 219.337 927.61 217.997 914.36C216.767 902.17 217.497 890.371 218.447 878.031C217.987 883.981 217.307 874.631 219.477 875.091C220.847 875.381 219.347 877.32 219.537 878.07L230.217 922.38C230.547 923.77 231.707 924.891 232.527 925.091C233.977 925.451 235.387 923.91 235.547 922.07C237.237 903.14 226.517 871.5 221.267 853.1L217.467 839.79C219.947 840.3 221.427 843.651 223.337 842.831L226.517 841.44C227.477 841.02 230.577 845.62 233.517 845.05C235.027 844.76 235.457 843.53 235.637 842.43C235.847 841.1 234.387 840.421 233.977 838.961C233.707 837.991 235.007 837.851 235.487 837.951C236.367 838.141 235.887 839.99 236.487 840.5C240.317 843.69 243.767 846.34 246.497 850.5C247.717 852.37 250.507 852.201 251.687 851.281C253.867 849.581 251.887 847.85 252.317 844.43L258.877 853.1C259.777 854.29 261.187 854.901 262.517 854.391C264.127 853.771 264.917 852 264.217 850.12L257.327 831.61C263.047 835.61 260.517 849.271 273.627 849.961C276.437 844.611 274.027 839.49 274.287 833.68C277.987 836.8 277.247 852.1 283.477 851.6C285.347 851.45 287.297 850.24 288.447 847.97C289.847 847.29 291.327 849.2 292.737 848.93C296.487 848.23 296.117 844.34 298.237 841.47C299.017 845.57 297.887 851.31 301.497 853.55C304.957 855.7 308.027 850.19 310.377 849.63C315.137 848.49 317.807 845.031 321.767 843.281C324.787 841.941 327.887 843.021 330.787 839.531C334.577 834.961 337.397 828.96 341.537 824.57C344.417 821.51 347.857 819.81 349.607 814.85C347.927 824.63 339.387 831.44 335.777 840.29C341.777 847.42 351.297 828.751 354.807 824.711C357.097 825.881 359.177 827.671 361.997 828.641C367.827 825.781 371.417 821.001 374.507 815.841C377.757 831.151 393.367 799.05 394.647 795.48C396.267 796.13 395.737 799 397.087 799.17C401.697 797.91 403.967 793.651 407.227 790.641C407.787 792.511 406.217 793.89 406.707 796.5C414.737 798.87 428.597 771.56 431.407 766.37C440.867 762.94 442.887 755.4 446.477 746.91C447.417 748.81 446.977 750.53 448.677 751C455.047 752.77 458.837 736.36 460.567 731.19C469.577 736.97 473.097 715.3 473.477 711.05C474.617 712.37 475.477 713.31 476.517 713.3C477.557 713.29 479.757 712.711 480.457 711.151C484.267 702.661 487.147 693.481 489.607 684.531C491.507 684.791 493.607 686.08 495.027 682.79L500.737 669.51C502.607 665.17 506.117 661.241 504.987 656.331C505.707 655.861 506.147 654.78 507.257 655.18C505.137 663.71 505.557 672.15 505.297 680.99C505.067 688.73 504.637 695.811 506.457 703.201C487.577 726.931 468.197 748.75 446.347 769.19C433.837 780.89 422.117 792.17 410.547 804.61C403.747 811.93 398.277 819.581 392.527 827.641C385.007 838.171 374.737 845.62 366.377 855.32L339.447 886.56L315.407 915.461C310.677 921.151 304.847 925.341 298.747 929.591C289.067 936.341 279.737 943.08 270.597 950.43C266.817 953.47 266.197 957.4 263.977 961.22C258.997 969.79 242.447 984.51 238.657 994.98H248.547C253.357 985.04 263.877 977.51 270.527 966.54C283.477 964.91 302.017 955.49 311.777 946.76L333.437 927.391C337.417 923.831 342.747 920.231 346.997 918.091C384.867 912.201 418.157 938.58 433.417 970.26C435.407 974.38 437.517 978.851 442.297 979.891C444.587 980.391 445.737 977.251 447.167 976.091C466.727 960.091 484.777 929.101 496.927 906.651L530.417 844.781C552.937 849.041 557.947 856.001 574.247 869.961C587.287 881.131 601.737 889.39 616.957 897.26L661.807 920.451C678.947 929.311 694.187 939.6 708.377 952.69C711.397 955.48 714.567 959.601 718.947 959.531C708.837 943.991 695.437 933.19 680.787 923.99C659.477 910.63 602.677 884.701 586.027 870.951L560.277 849.701C552.527 843.311 543.177 840.45 533.087 841.18C539.197 828.79 564.597 797.17 568.767 787.49L573.657 776.16C576.427 779 580.317 780.28 583.987 782.3L610.467 796.82L644.157 818.16C687.687 845.74 730.407 873.161 774.937 899.151C794.067 910.321 811.467 922.5 827.377 937.6C828.647 938.81 829.617 939.84 831.047 939.98V928.98C815.477 914.57 797.947 902.64 779.277 891.55L719.657 856.12L639.927 805.07C619.127 791.75 597.267 777.36 573.797 770.25C572.427 763.75 569.897 758.19 566.937 752.35L555.827 730.401C548.787 716.501 542.247 702.951 537.297 688.141C533.677 677.311 525.887 670.381 514.017 668.841C514.937 653.031 515.627 637.921 518.017 622.451C519.587 612.311 522.497 602.901 521.627 593.581C529.387 597.211 537.167 594.43 543.717 590.87C553.717 585.43 558.997 575.631 562.477 565.031C565.957 554.431 569.437 545.1 573.667 535.22C579.257 522.16 585.327 509.85 588.257 495.85C591.587 479.96 593.787 464.331 591.057 448.391C588.327 432.451 579.277 413.62 560.037 417.01C566.347 411.64 568.027 329.4 567.767 327.07L565.907 310.86C577.987 307.69 557.577 261.18 553.647 253.58C551.627 253.07 551.907 251.58 553.507 252.08C556.067 254.11 558.237 256.301 561.227 256.951C569.997 258.871 554.847 222.82 521.187 205.65C518.657 204.36 516.377 203.82 514.457 203.64C519.227 194.91 515.327 167.17 508.537 167.58C505.547 167.76 506.027 177.85 505.097 179.71C493.207 150.74 464.747 129.06 437.017 117.76C435.457 117.13 433.587 117.94 433.087 118.72C432.397 119.79 432.937 121.32 432.897 123.03C409.307 110.21 388.187 106.03 364.057 92.3005C362.197 94.4005 365.347 95.5705 363.127 97.5005C358.267 87.5505 353.707 77.4505 351.247 66.1505C350.927 64.6705 349.787 63.0805 348.597 63.0705C341.957 63.0205 342.797 88.9005 342.777 92.7705C340.887 88.9905 320.687 73.4605 318.317 77.0505C315.767 80.9105 319.937 83.2805 322.107 86.8505C305.137 75.6105 292.187 74.5805 272.707 63.0405C270.997 62.0305 268.967 62.5705 268.167 63.7105C264.297 69.2005 280.157 78.0405 281.827 80.8305C266.817 72.1105 257.767 65.6605 248.297 51.8805C247.167 50.2405 245.057 49.5405 243.987 50.1005C238.287 53.0805 241.557 67.6805 242.327 73.3205C238.337 71.4505 230.207 63.7105 226.347 66.6305C222.487 69.5505 231.337 79.4205 232.317 86.8005C223.267 83.2505 216.837 77.0505 210.587 70.3605C209.637 69.3505 207.657 69.5505 206.957 70.1605C201.127 75.2405 203.917 93.0005 208.087 100.02C201.947 94.8405 196.537 89.7305 190.987 84.0405C184.037 76.9105 182.077 66.1905 178.547 66.5805C177.447 66.7005 176.277 67.7605 175.897 69.3105C172.397 83.3705 174.807 98.0905 182.397 110.4C163.117 113.79 144.187 111.09 127.487 102.54C125.397 101.47 123.817 100.05 122.157 101.62C120.977 102.74 119.937 104.94 121.087 106.71C126.017 114.29 132.137 120.7 138.597 125.56C119.997 126.21 105.657 129.26 92.3969 140.29C90.5469 141.83 88.5469 147.88 91.9969 147.9C104.567 147.95 116.277 149.13 127.947 154.8C121.127 156.01 89.4569 180.87 97.9269 186.66C101.647 189.2 106.717 183.6 109.737 184.15C103.977 185.54 84.4869 213.72 95.0269 215.43C99.3169 216.12 99.7769 211.22 104.197 210.04C95.5069 223.34 88.2769 237.5 86.1269 253.69C85.7969 256.21 86.7569 258.76 88.6369 259.08C91.2669 259.52 92.8969 258.2 93.8069 256.11C92.1169 262.72 79.7569 292.05 82.4969 295.88C82.9769 296.55 84.3069 297.04 85.6469 297.82C82.9569 308.5 81.4569 319.57 81.5469 331.01L81.8769 372.02C81.8969 375.02 82.5169 377.24 85.0069 378.48C77.4369 383.98 75.1669 392.571 72.1169 400.421C67.8669 401.001 63.0669 399.07 59.3169 401.41C54.7669 404.25 55.3669 413.37 59.5069 416.38C62.7669 418.75 65.8469 417.76 70.0969 418.46C68.5269 436.5 74.6169 452.93 77.7469 470.43C78.7669 479.29 75.8769 489.61 74.9769 498.69C73.0169 518.51 74.4769 537.181 73.9869 557.091L73.2469 586.951C73.0069 596.761 74.4369 605.281 76.8269 614.591C79.0969 623.411 80.5969 631.901 84.2269 640.391C86.7969 646.411 86.6769 653.541 88.8869 659.831C89.6969 662.141 92.9069 661.74 93.6569 663.19C99.1369 673.88 97.0269 682.58 104.677 687.07L111.047 707.66C111.547 709.28 113.177 710.3 114.507 710.1C116.497 709.81 115.557 707.63 116.667 705.85C120.317 713.48 120.407 722.011 123.757 730.091C124.387 731.611 126.677 732.17 127.127 733.73C130.247 744.45 129.937 765.391 135.617 756.031C136.197 758.701 137.387 779.17 142.047 777.91C145.497 776.98 144.687 773.06 145.527 769.94C147.257 774.22 150.977 800.26 156.597 798.63C160.357 797.54 156.337 792.81 160.027 792C159.377 795.3 161.607 798.101 162.287 800.831C159.297 803.341 157.197 807.53 154.267 810.37L125.807 837.8C109.357 853.66 93.6469 869.371 77.7369 885.701C75.1269 888.381 73.9969 892.46 72.1469 895C61.6069 902.02 37.8769 918.86 31.0969 928.3C19.4069 944.58 9.89691 961.66 -0.163086 978.951C-3.32309 984.391 -6.15314 989.531 -8.03314 995.031L-8.08313 995ZM300.947 347.97C297.917 347.86 297.527 350.91 296.437 352C294.067 341.71 286.017 362.28 286.087 364.75L198.887 365.37C195.297 359.52 191.767 353.3 185.347 350.97C186.727 357.73 192.237 359.85 194.297 365.05C193.747 365.67 191.397 366.18 190.807 365.23C193.467 359.79 176.637 348.67 172.037 347.53C170.177 347.07 169.697 349.9 170.287 350.86C170.877 351.82 172.777 352.3 172.697 354.24C167.167 350.54 161.977 346.29 155.347 344.34C152.867 343.61 150.277 344.52 147.637 343.01C145.497 341.78 142.517 341.31 139.827 342.37C140.367 345.06 143.827 344.37 143.877 347.33C138.667 344.88 133.867 341.25 128.007 342.88C126.837 343.21 127.277 346 127.867 346.44C132.097 349.55 135.977 347.24 136.997 351.26C119.337 342.6 112.707 349.83 118.197 351.05C127.357 353.1 135.637 356.49 144.407 359.86C147.617 361.09 150.697 360.94 154.707 363.74C141.797 363.6 106.827 364.07 94.1869 372.87C94.8769 367.71 96.0069 363.1 97.4669 358.07L108.707 319.21C113.727 301.84 120.657 285.73 127.177 268.94C133.277 253.24 141.687 239.97 152.027 226.91C159.967 216.88 170.017 209.34 183.027 207.47C186.687 206.94 187.347 204.44 188.977 201.77C191.057 198.36 205.017 194.75 205.177 194.76C228.617 195.49 226.357 186.93 231.957 188.45C236.867 189.78 248.117 190.99 250.797 184.56C254.707 183.54 283.757 197.93 279.737 186.37C281.817 187.99 284.467 187.6 287.207 188.12C294.117 189.43 298.157 194.35 302.997 188.92C306.347 189.9 320.927 196.63 322.167 191.51C323.207 187.22 311.747 185.61 312.017 182.66C325.007 190.5 344.067 196.68 354.887 183.44C359.757 184.41 364.197 185.05 368.747 183.76C370.427 183.28 369.897 180.92 370.507 179.19C375.977 183.27 382.847 182.37 388.667 184.83C396.737 188.25 403.857 195.04 413.147 195.84C418.207 196.28 421.827 197.15 426.127 200.15C432.657 204.71 440.637 208.64 445.477 215.1C444.367 217.6 441.787 219.3 445.097 222.85C450.027 228.13 453.987 233.72 457.897 239.77C458.517 240.73 461.397 241.17 458.697 242.4C456.437 238.6 451.327 234.23 447.127 236.9C443.567 239.17 457.617 251.04 461.627 269.83C462.017 271.68 464.477 272.47 463.287 274.5C460.487 270.25 448.247 261.5 448.537 268.48C448.707 272.61 457.717 285.49 458.967 293.09C455.777 290.6 454.437 286.3 450.057 286C445.167 285.66 456.917 299.82 456.227 301.13C452.917 299.58 450.087 295.66 445.747 295.94C439.057 296.36 461.357 316.21 458.947 316.01C452.897 312.47 450.317 306.42 443.807 304.29C438.207 304.55 457.437 327.67 458.227 328.71L478.897 355.891C483.447 361.871 487.477 367.93 489.357 375.3C491.857 385.12 494.027 394.72 494.887 405.25C475.587 402.09 457.117 399.87 438.027 397.79C429.017 396.81 431.627 392.76 412.567 393.55C404.697 365.27 372.487 361.42 349.087 360.55C363.157 353.49 377.387 349.59 393.357 346.58C389.567 339.18 363.887 348.29 360.567 349.41C366.717 344.99 373.787 344.67 380.517 341.06C379.197 337.75 375.647 338.62 372.977 339.51L356.047 345.11C356.047 343.17 358.407 343.24 358.917 341.91C359.427 340.58 358.177 339.56 357.487 339.58C356.797 339.6 355.967 339.38 355.087 339.72L343.057 344.35C342.607 343.56 342.407 341.05 341.227 341.07C338.527 341.11 336.437 342.47 334.077 342.36C333.827 340.19 331.067 339.88 329.047 340.79C311.937 348.42 302.247 363.77 304.077 362.55C303.647 362.84 303.117 363.1 302.587 361.94C306.277 355.99 311.107 351.6 316.017 346.97C317.587 345.49 317.807 334.97 299.147 356.05C298.647 356.61 299.237 357.76 298.527 358.09C292.697 360.77 304.547 349.64 300.937 347.97H300.947ZM314.737 491.531C303.327 488.861 294.757 482.81 288.047 473.99C274.937 456.78 268.487 433.48 265.297 412C263.897 402.56 264.637 392.55 269.407 384.21C271.497 380.55 276.217 377.84 280.367 376.56C302.997 369.61 326.207 367.771 349.927 369.171C362.477 369.911 374.357 370.611 386.017 375.421C416.037 387.801 410.297 439.54 402.037 464.25C399.847 470.81 396.837 477.27 391.807 481.78C374.997 496.86 336.567 496.641 314.727 491.521L314.737 491.531ZM217.947 392.76C215.357 383.5 211.427 377.051 204.327 372.421L270.987 371.23C263.187 375.5 259.187 383.28 256.437 391.77C243.037 387.46 230.207 388.16 217.957 392.77L217.947 392.76ZM157.907 496.06C143.517 497.61 129.987 496.991 116.427 494.281C102.877 491.571 92.9869 482.64 88.2069 470C86.9069 466.57 85.8569 464.18 86.6469 460.23C91.6969 435.021 93.2469 410.08 92.2669 384.04C110.447 368.7 165.007 371.401 187.027 375.201C193.617 376.341 200.087 378.79 204.397 383.54C216.887 397.28 209.137 428.74 204.797 445.12C201.257 458.48 195.797 470.48 187.127 481.3C180.067 490.1 169.587 494.8 157.907 496.06ZM79.2369 408.29C81.4569 400.96 82.3169 395.991 86.4269 390.421L85.2869 409.421C82.7469 408.801 80.3069 409.32 79.2369 408.29ZM315.907 713.37C312.797 716.41 314.697 721.52 314.757 724.68C311.817 724.41 310.667 723.291 308.597 720.401C302.667 727.511 305.527 736.201 304.537 745.151C303.667 742.301 300.987 718.45 294.537 722.18C293.337 725.2 294.257 728.6 293.487 732.07C293.187 729.23 290.417 729.091 288.517 727.581C286.617 726.071 285.987 718.06 282.967 719.38C281.877 719.86 282.187 720.92 282.337 722.13C283.357 730.52 282.727 738.451 282.627 747.091L276.037 725.29C275.567 723.73 274.847 721.26 273.307 720.41C272.367 719.89 270.897 720.281 269.277 719.951C267.477 716.941 267.757 713.1 263.637 711.51L262.457 727.951C261.137 725.201 260.367 720.131 256.947 719.961C253.787 719.801 255.037 724.92 253.407 727.05C252.627 723.99 252.037 706.781 248.467 705.901C241.707 704.231 239.687 729.85 239.537 734.11C236.017 727.21 241.777 713.31 233.427 712.55C232.477 710.41 233.267 708.1 231.607 705.75C228.907 708.62 229.457 712.25 227.327 715.57C222.607 722.96 223.937 734.7 220.917 737.19C221.027 727.83 223.827 719.021 221.147 709.831C220.437 707.401 216.457 710.44 215.877 712.17C214.107 717.46 212.267 721.93 209.457 727.07C208.547 726.12 212.817 709.04 205.747 711.31C203.277 712.1 203.117 715.101 202.287 716.841C200.597 715.541 198.337 714.991 196.997 716.401C196.277 717.161 197.277 719.17 195.177 720.04C195.137 717.87 195.567 715.47 194.217 714.44C193.327 713.77 191.167 713.93 190.397 715.25C188.367 718.75 186.087 707.451 180.407 729.081C180.147 726.851 179.657 707.091 176.547 709.141L174.637 710.391C174.057 710.771 171.467 709.561 170.657 708.841C169.187 705.481 171.777 699.551 169.617 696.331C168.007 693.921 164.567 696.921 163.577 698.341C162.297 700.181 163.727 702.58 162.327 705.05C160.537 700.57 165.357 687.031 158.987 687.711C158.077 687.811 157.657 688.67 156.457 689.31C154.917 684.2 160.217 675.181 154.497 674.841C153.267 674.771 152.377 675.89 151.257 677.06C151.227 673.78 153.317 671.24 153.097 667.82C152.967 665.72 149.497 667.02 147.977 666.62C150.827 665.23 154.047 658.721 151.177 656.641C144.387 655.551 135.107 674.05 132.847 679.62C132.477 662.85 130.157 674.25 124.207 662.8C122.867 660.22 120.897 657.691 121.137 654.451C121.407 650.711 117.537 651.03 116.567 649.68C115.187 647.75 114.787 644.351 112.267 643.961C109.927 638.671 111.167 630.69 108.167 625.86C104.727 624.7 104.087 629.74 103.347 631.98C103.087 624.49 103.097 617.36 100.467 610.31C97.9069 610.7 98.5769 612.54 97.3369 614.06C97.1569 610.02 95.5069 606.45 93.4669 602.73C90.1069 596.6 91.2069 581.68 87.0769 590.29C79.8269 560.19 78.1169 528.891 82.2869 497.201C82.9869 491.911 81.9369 487.14 83.9169 481.66C90.9669 492.58 101.587 500.01 114.747 502.61C131.037 505.84 147.527 505.72 164.007 503.54C174.917 502.1 183.567 497.061 192.377 488.901C186.787 510.151 196.567 515.74 196.227 509.06C195.647 497.51 199.917 480.62 205.347 471.12C216.087 452.35 222.577 431.83 224.317 410.15C224.417 408.94 223.687 407.73 223.217 407.3C222.747 406.87 221.517 407.201 221.177 407.701C219.067 410.811 223.127 412.48 218.807 414.01C219.777 409.51 219.547 405.751 219.147 401.201C230.957 396.591 243.697 396.23 255.297 399.99C256.807 420.6 261.117 440 268.967 458.71C272.647 467.47 277.617 474.9 283.617 482.33C292.107 492.85 304.727 498.81 318.377 501C339.987 504.47 374.837 504.031 393.567 490.781C414.907 475.681 418.097 435.29 416.257 411.5C420.487 412.22 424.357 410.48 428.327 410.81L468.027 414.08C477.597 414.87 486.677 414.83 496.027 416.66C497.067 433.76 497.357 448.301 501.137 463.891C499.427 465.801 498.017 467.67 498.637 470.78L500.717 481.27C500.537 482.93 497.347 485.46 498.657 487.88C500.507 491.31 498.237 494.03 498.157 497.06C498.057 500.98 497.227 503.751 496.267 507.271C494.567 513.531 497.277 525.87 495.977 526.56C493.527 527.86 496.637 524.42 493.137 521.18C491.917 520.05 489.007 520.17 488.637 521.91C487.487 527.33 489.087 532.36 488.287 537.61C487.687 537.8 485.797 536.72 485.307 537.44C483.507 540.07 484.047 543.01 484.747 546C476.417 538.77 481.957 562.951 480.617 565.091C478.267 561.331 479.747 556.04 474.187 555.22L473.597 591.11C472.227 587.13 472.077 568.11 466.627 568.99C465.577 569.16 464.407 570.5 464.507 572.01L466.267 599.61C466.317 600.36 467.667 600.831 466.987 601.531C466.587 601.941 466.157 602.31 465.467 602.04C464.507 601.65 463.707 580.5 457.567 575.41C454.537 582.62 456.277 589.9 455.097 595.98C447.827 595.17 453.877 614.38 452.637 618.07C449.767 612.83 451.307 591.981 445.377 589.091L440.417 633.05L439.757 620.05C439.597 616.87 439.257 600.12 434.257 602.11L432.527 632.1C431.597 628.77 431.847 612.26 426.437 613.69C422.647 614.69 425.577 632.3 425.047 637.24C423.197 635.94 422.287 633.59 420.517 634.88C419.047 635.96 418.367 637.781 418.937 640.641L414.467 639.701L411.457 669.99C410.257 668.17 408.967 667.181 407.557 667.961C406.077 668.771 401.997 683.87 402.377 681.5L399.437 700.091C398.647 698.021 400.487 688.87 396.427 688.11C392.367 687.35 392.027 698.25 391.437 699.94C390.297 697.41 388.057 693.21 385.157 693.97C380.937 695.08 381.597 700.67 381.627 703.54C381.637 704.67 379.907 705.46 379.887 704.48C379.717 693.53 354.847 662.92 350.497 664.97C346.897 666.67 357.407 675.23 358.247 680.48C356.387 679.95 345.757 664.59 342.557 668.3C339.597 671.73 347.277 674.141 345.527 686.021C344.337 683.521 340.867 680.62 339.227 683.17C337.687 685.57 347.097 704.18 345.377 707.63C344.307 704.41 337.107 687.93 333.667 693.48C332.257 695.76 338.337 709.211 339.037 714.701C340.787 715.751 339.927 717.811 338.317 716.141C337.657 712.131 332.607 699.66 328.807 701.13C323.527 703.17 329.067 713.15 328.777 715.18L325.397 711.63C324.357 710.54 322.137 712.66 322.007 714.42C321.677 718.78 324.827 722.38 323.607 727.19C322.517 727.97 320.847 708.47 315.827 713.38L315.907 713.37ZM81.5669 448.79C79.7869 438.29 78.2669 429.661 78.2169 419.891C80.7769 419.581 83.0469 419.871 85.4269 420.391L81.5669 448.79ZM523.317 552.521C523.697 543.451 521.067 535.481 520.597 527.091C520.497 525.241 522.917 523.911 523.307 522.031C524.217 517.661 522.177 513.83 521.927 509.79L521.017 495.451C520.037 479.941 524.187 464.49 527.377 449.32C528.337 444.76 530.977 442.97 534.407 440.48C545.777 432.23 562.797 414.38 574.987 429.05C580.117 435.22 583.027 442.57 583.957 450.82C586.197 470.8 583.417 490.651 576.087 509.391C572.857 517.651 569.997 525.55 566.147 533.44C560.517 544.96 557.197 556.56 553.267 568.79C549.657 580.04 531.787 591.201 521.657 585.211C521.567 580.661 519.937 575.061 520.767 570.271C521.137 568.151 524.787 566.461 523.017 563.331C521.157 560.031 523.147 556.54 523.317 552.54V552.521ZM276.637 956.43C290.017 941.85 310.967 934.521 323.847 918.841L351.397 885.3L390.427 839.43C401.677 826.21 411.837 813.551 424.477 801.401L473.327 754.41C481.757 746.3 488.457 737.661 496.137 729.021C504.697 719.371 511.847 709.23 518.137 697.97C520.137 694.4 521.787 690.58 520.837 686.42C520.367 684.34 518.427 683.241 516.567 683.451C515.217 683.601 514.497 684.89 513.267 686.04C513.617 682.86 514.167 680.28 513.107 676.31C520.427 677.79 525.987 682.65 528.687 690.1C533.007 702.02 537.127 713.57 542.817 724.97L564.117 767.6C565.937 771.25 565.547 774.4 563.797 778.12C559.657 786.9 554.707 795.02 548.657 802.86C535.227 820.26 523.657 837.95 513.207 857.37L494.297 892.521C480.337 918.471 462.407 950.99 442.397 969.6C436.357 954.14 426.617 942.47 415.157 931.81C396.897 914.83 372.767 906.36 348.047 909.44C343.297 910.03 340.377 912.19 336.847 914.69C329.557 919.87 322.747 924.971 316.237 931.201C303.907 942.981 294.257 951.76 276.627 956.44L276.637 956.43ZM198.417 912.211C176.147 929.781 152.597 942.651 133.377 964.141C126.417 960.751 120.847 957.13 115.507 952.49C96.2969 935.77 120.907 913.55 108.277 903.68C100.877 897.89 92.7269 895.14 82.8869 893.41C96.9769 878.09 111.057 863.63 126.237 849.22C140.287 835.89 153.837 823.08 165.867 807.98L174.817 820.151C176.107 821.911 178.527 822.19 179.777 821.31C184.397 818.04 172.627 810.65 180.587 815.1C187.677 833.88 190.057 820.91 194.897 831.25C195.277 832.07 197.487 833.26 198.327 832.93C199.267 832.56 199.317 831.27 200.717 829.82C201.397 834.7 205.927 837.321 207.997 841.701C218.987 864.961 212.007 863.8 210.737 874.25C209.597 883.63 209.117 892.45 208.517 901.97C206.597 905.81 201.887 909.471 198.407 912.211H198.417ZM100.067 924.49C92.3069 917.78 86.0969 910.57 81.0169 902.01C89.5469 902.56 96.8869 906.43 103.827 911.01C103.037 916.07 102.137 920.29 100.067 924.49Z" fill="#101214"/>
<path d="M159.068 584.7C158.438 583.28 158.978 581.48 157.538 581C155.938 580.46 152.408 585.371 152.198 585.281L149.148 584.091C145.818 582.791 126.138 621.62 134.008 621C136.788 620.78 135.618 616.93 138.408 615.99C134.788 626.34 133.318 636.17 135.998 646.63C136.328 647.93 139.228 650.541 139.528 649.141C140.378 645.171 143.378 645.161 145.178 643.151C148.908 638.991 148.968 632.48 151.998 627.86C152.888 626.51 154.858 626.041 155.628 624.451L164.778 605.641C165.938 606.571 167.348 606.61 168.088 607.79C166.208 608.45 163.318 608.65 163.558 611.05C164.558 621.27 187.398 618.87 194.218 617.61C218.498 613.14 223.868 625.03 245.678 619.07C254.068 616.78 262.318 616.631 271.038 617.391C279.558 618.131 331.878 625.18 329.268 611.85C333.348 615.45 336.008 623.83 341.568 622.67C342.998 623.99 346.288 640.47 350.598 632.99L354.028 643.74C354.348 644.75 355.168 645.5 355.678 645.81C356.488 646.31 357.448 645.6 357.798 645.11C358.318 644.38 357.178 642.831 359.148 641.831C360.078 643.251 359.068 653.551 362.718 656.841C363.258 657.331 365.358 656.66 365.608 655.42C366.928 648.84 365.438 642.231 364.128 636.151C366.198 636.971 366.248 639.6 367.638 638.44C373.078 633.9 356.588 593.09 345.958 587.88C342.908 590.09 345.528 592.35 345.568 595.44L335.718 584.12C334.778 583.03 333.228 582.601 332.478 583.021C331.218 583.731 331.768 585.67 331.718 586.87C328.928 584.03 326.028 579.48 321.488 578.26C319.278 577.67 319.278 582.98 320.558 584.47L306.918 574.55C303.788 576.73 307.578 578.391 307.628 581.401L296.778 569.24C290.978 570.77 292.808 561.65 287.768 568.18C286.828 567.58 285.978 565.2 284.708 564.92C280.568 566.83 283.848 570.8 284.438 574.3C279.858 569.97 278.748 563.381 273.468 560.281C271.958 559.391 268.828 560.8 268.088 558C267.858 557.13 266.038 556.55 265.428 556.7C264.268 556.98 264.378 558.57 263.438 560.04C262.458 557.67 262.028 554.63 258.938 553.36C257.708 552.85 256.678 554.03 256.168 554.8C254.328 557.6 259.098 563.12 257.538 566.22C255.518 564.77 254.338 553.67 250.458 552.87C248.838 552.53 248.118 553.68 247.238 555.22C246.648 556.26 247.748 557.26 247.718 559.79C246.488 558.46 241.298 556.65 240.448 558.92C238.648 563.75 243.388 569.14 242.838 573.13L242.068 578.711C242.068 578.711 246.898 591.031 250.658 591.961C252.118 592.321 253.158 591.16 253.698 590.04C255.488 586.3 248.138 581.08 253.418 582.99C256.258 584.02 250.378 585.26 260.798 592.12C262.368 593.15 263.318 594.96 265.518 594.63C267.448 594.34 267.198 592.511 269.178 590.271C270.508 593.871 271.638 596.941 275.128 598.211C276.408 598.671 276.688 596.081 278.518 595.771C278.868 597.821 281.418 602.41 283.688 600.92C288.068 598.04 283.528 593.65 283.168 589.19C284.738 588.8 290.198 605.531 294.538 604.331C296.498 603.781 297.258 601.741 296.638 599.951L290.168 581.25C291.158 582.8 303.978 611.841 310.128 603.841C311.828 604.471 312.728 607.05 314.998 607.48C317.578 607.97 317.048 604.931 317.308 602.951C318.668 606.041 321.358 606.61 325.758 607.24C315.658 615.49 289.008 613.011 273.938 611.451C243.258 608.281 243.978 618.34 220.868 612.74C192.958 605.98 191.328 616.87 168.748 608.57C176.558 605.85 177.018 596.351 180.708 591.891C180.918 595.131 177.908 600.12 182.048 600.97C185.298 601.64 187.558 596.9 188.478 594.12C188.548 595.62 188.328 596.97 189.648 597.81C194.458 600.85 197.318 592.05 198.478 588.94C199.598 590.39 198.908 593.14 200.908 593.16C203.148 593.18 203.978 590.18 205.558 589.57C206.488 589.43 207.638 591.25 208.578 591.24C213.118 591.18 213.138 586.45 215.988 584.76C216.448 585.85 216.918 586.84 217.718 587.22C218.888 587.78 220.748 586.67 221.328 585.1C221.768 583.9 232.648 560.45 225.938 562.67C222.338 563.86 222.208 568.491 220.288 571.091C218.698 566.951 224.218 562.381 220.558 559.461C219.778 558.841 218.588 559.52 217.518 560.98C216.328 560.68 215.918 559.611 214.808 558.591C211.808 559.641 211.518 562.77 210.298 564.87C209.748 562.17 213.078 556.47 209.888 555.44C203.478 553.36 201.608 560.67 198.948 565.5C197.438 562.24 202.118 559.91 198.718 556.56L188.078 566.25C181.668 559.97 174.358 579.1 172.458 580.92C171.588 578.77 173.198 577.991 173.498 577.341C174.058 576.141 172.468 573.771 171.028 574.641C166.368 577.421 163.368 581.661 159.048 584.711L159.068 584.7Z" fill="#101214"/>
<path d="M219.751 649.211C216.061 653.501 217.001 666.501 220.601 667.061C223.181 667.461 222.251 661.841 225.541 661.781C225.351 665.481 231.321 676.751 232.411 676.571C236.591 675.881 239.441 667.131 241.671 664.011C241.571 665.741 241.591 666.981 242.271 668.001C246.851 674.941 252.131 657.071 251.671 656.201C252.411 658.561 254.261 661.601 255.961 660.271C258.831 658.021 258.871 653.431 259.391 649.681C255.971 648.961 255.661 651.711 254.461 654.001C253.871 652.731 254.441 649.611 251.911 649.591C249.231 649.561 248.711 653.171 248.571 654.971C247.521 653.551 247.881 652.231 247.191 651.451C245.991 650.091 244.621 651.221 243.651 652.711L242.051 651.291C241.241 650.571 240.291 651.671 239.481 652.981C238.941 651.851 238.541 650.261 237.371 649.961C233.791 649.031 232.381 654.861 231.501 654.851C230.051 654.841 229.761 650.131 225.461 650.411C223.521 650.541 224.171 652.761 222.801 654.981C220.911 653.331 223.871 651.661 219.741 649.211H219.751Z" fill="#101214"/>
<path d="M269.592 643.711C272.502 642.801 274.132 640.201 272.202 637.931C253.132 642.731 234.112 643.811 215.322 639.481C210.482 638.371 201.842 633.301 199.622 636.451C197.122 640.011 207.642 644.371 211.212 645.271C230.232 650.071 250.502 649.691 269.582 643.711H269.592Z" fill="#101214"/>
<path d="M204.222 537.121C209.902 539.771 222.152 555.521 238.312 546.521C239.262 545.991 239.592 544.991 239.692 544.431C240.662 538.701 230.782 547.011 218.772 539.071C206.762 531.131 206.072 524.711 195.952 517.641C194.392 521.041 196.512 523.471 197.392 526.611C195.022 526.591 192.342 527.501 191.582 529.541C190.512 532.421 192.422 534.911 195.342 536.071C198.262 537.231 201.502 535.851 204.232 537.121H204.222Z" fill="#101214"/>
<path d="M237.624 532.459C237.814 537.219 244.094 530.639 255.404 534.919C259.904 536.619 271.254 539.969 273.924 536.279C274.634 535.289 275.144 532.649 273.764 531.369C258.914 517.649 237.284 523.919 237.634 532.459H237.624Z" fill="#101214"/>
<path d="M291.036 536.019C282.246 543.229 275.996 541.189 274.586 545.619C274.116 547.089 275.486 548.799 277.376 548.919C282.196 549.239 286.366 546.969 290.506 544.769C300.426 539.499 304.696 528.829 301.166 518.179C299.996 514.639 294.996 500.779 290.596 502.889C285.196 505.489 305.046 524.509 291.026 536.009L291.036 536.019Z" fill="#101214"/>
<path d="M174.536 525.069C175.066 542.749 196.426 549.019 198.266 543.479C200.106 537.939 182.126 540.959 180.686 525.929C179.496 513.509 189.356 504.579 185.616 502.859C181.326 500.879 174.246 515.529 174.536 525.069Z" fill="#101214"/>
<path d="M212.44 596.091C231.98 607.551 231.66 603.201 252.07 596.671C249.09 589.171 234.86 598.191 230 598.211C223.9 598.241 215.57 589.361 212.44 596.091Z" fill="#101214"/>
<path d="M236.857 562.869C230.657 562.909 236.388 589.029 240.508 588.399C244.628 587.769 240.118 579.239 241.508 574.119C240.448 570.259 239.157 566.719 236.857 562.869Z" fill="#101214"/>
<path d="M99.9103 364.559C101.04 367.869 112.99 361.479 117.09 360.369L112.9 358.149C121.07 357.609 128.13 359.849 136.23 361.609C140.76 353.279 105.53 349.869 106.69 355.489C107.45 359.159 113.91 355.069 111.5 358.799C107.05 357.469 98.9603 361.749 99.9103 364.549V364.559Z" fill="#101214"/>
<path d="M371.617 357.94C384.577 354.76 396.387 354.43 409.367 357.61C408.887 346.89 377.067 348.89 369.287 355.85C368.427 356.62 369.667 358.42 371.607 357.94H371.617Z" fill="#101214"/>
<path d="M416.98 366.91C418.45 367.39 419.99 367.23 420.34 366.53C422.66 361.92 396.24 354.59 390.6 358.36L416.98 366.9V366.91Z" fill="#101214"/>
<path d="M531.589 532.53C531.459 530.39 532.889 528.09 534.399 526.28C541.339 517.94 541.419 507.03 534.799 498.26C531.279 493.6 530.639 487.72 535.479 483.7C539.239 484.67 545.339 490.74 547.549 489.38C548.539 488.77 549.019 487.34 548.549 485.91C546.809 480.56 541.699 478.22 536.249 477.56C541.779 465.35 549.819 454.53 559.959 446.3C562.239 444.45 565.449 444.05 568.179 444.38C572.849 444.96 572.519 451.34 576.549 451.54C578.449 451.63 578.899 449.91 578.789 447.96C578.539 443.43 576.109 440.39 572.719 438.47C555.029 428.43 525.909 468.73 525.069 492.81C524.839 499.51 537.969 509.78 530.189 520.36C526.839 524.92 520.239 535.36 526.249 539.44C532.999 544.02 535.029 534.52 545.349 532.22C541.729 526.73 536.309 529.67 531.579 532.52L531.589 532.53Z" fill="#101214"/>
<path d="M546.13 547.45C546.28 550.38 550.6 548.88 551.31 547.23C553.63 541.77 557.13 538.21 560.82 533.77C566.35 527.11 571.91 517.54 568.39 508.59C563.18 518.62 559.25 526.94 552.15 534.24C549.01 537.46 545.88 542.47 546.13 547.46V547.45Z" fill="#101214"/>
<path d="M567.161 490.849C567.561 492.649 568.431 494.129 569.511 494.019C570.471 493.919 571.711 492.369 571.781 490.939C572.371 478.719 569.571 466.739 564.791 455.619C564.131 454.089 562.381 453.529 561.481 453.669C560.111 453.889 559.321 455.199 559.711 456.979L567.161 490.849Z" fill="#101214"/>
</g>
</g>
<defs>
<clipPath id="clip0_9756_1066">
<rect width="638" height="1012" fill="white"/>
</clipPath>
<clipPath id="clip1_9756_1066">
<rect width="1024" height="1024" fill="white" transform="matrix(-1 0 0 1 831 -29)"/>
</clipPath>
</defs>
</svg>
